<?xml version="1.0" encoding="iso-8859-1"?>
<!-- Generator: Adobe Illustrator 19.0.0, SVG Export Plug-In . SVG Version: 6.00 Build 0)  -->
<svg version="1.1" id="Layer_1" xmlns="http://www.w3.org/2000/svg" xmlns:xlink="http://www.w3.org/1999/xlink" x="0px" y="0px"
	 viewBox="0 0 512 512" style="enable-background:new 0 0 512 512;" xml:space="preserve">
<circle style="fill:#FFA037;" cx="256" cy="256" r="247.706"/>
<circle style="fill:#FFC850;" cx="256" cy="256" r="168.086"/>
<path style="fill:#FF8C32;" d="M123.3,256c0-116.999,81.142-214.986,190.203-240.924C295.041,10.685,275.805,8.294,256,8.294
	C119.195,8.294,8.294,119.195,8.294,256c0,136.804,110.902,247.706,247.706,247.706c19.805,0,39.041-2.392,57.503-6.782
	C204.442,470.986,123.3,372.999,123.3,256z"/>
<path style="fill:#FFB23C;" d="M169.761,400.081C140.613,359.475,123.3,309.808,123.3,256s17.313-103.475,46.459-144.081
	C120.792,141.295,87.914,194.741,87.914,256C87.914,317.26,120.792,370.706,169.761,400.081z"/>
<path style="fill:#FFFFFF;" d="M362.269,199.942c-3.702,3.702-10.105,3.303-13.807-0.4l-1.242-1.242
	c-3.702-3.702-4.1-10.103-0.397-13.805l-11.732-11.732c-3.702,3.702-10.086,3.323-13.789-0.38l0,0
	c-3.702-3.702-4.094-10.097-0.391-13.8l-11.148-4.245c-8.371,8.367-9.554,43.029-9.554,43.029L121.853,362.194
	c-9.819,9.819-9.819,25.738,0,35.557c9.819,9.819,25.738,9.819,35.557,0l164.627-178.137c0,0,36.14-0.207,44.469-8.53
	L362.269,199.942z"/>
<path style="fill:#FAF0C3;" d="M275.756,220.567l-83.535,76.871l16.028,16.028c4.857,4.856,10.643,8.372,16.902,10.673l73.885-80.29
	L275.756,220.567z"/>
<path style="fill:#FFFFFF;" d="M132.128,114.472L380.575,362.92c9.819,9.819,9.819,25.738,0,35.557l0,0
	c-9.819,9.819-25.738,9.819-35.557,0l-59.656-59.656c-6.11-6.11-7.468-15.172-4.073-22.593c1.788-3.909,1.493-8.432-1.546-11.472
	l-10.058-10.058c-3.928-3.928-10.295-3.928-14.223,0l0,0c-7.855,7.855-20.591,7.855-28.445,0l-62.233-62.233
	C93.882,161.565,132.128,114.472,132.128,114.472z"/>
<path d="M137.992,108.608c-1.661-1.661-3.953-2.533-6.292-2.418c-2.345,0.122-4.529,1.232-6.01,3.054
	c-0.462,0.57-11.327,14.202-12.111,37.356c-1.007,29.773,14.246,60.636,45.34,91.73l62.233,62.233
	c5.365,5.365,12.499,8.32,20.089,8.32c7.588,0,14.722-2.955,20.087-8.32c0.427-0.427,0.913-0.516,1.247-0.516
	c0.333,0,0.819,0.09,1.246,0.516l10.058,10.058c0.385,0.385,0.226,1.377-0.133,2.157c-4.909,10.735-2.599,23.559,5.751,31.908
	l59.655,59.656c6.519,6.519,15.081,9.778,23.643,9.778c8.562,0,17.125-3.259,23.643-9.778c13.038-13.037,13.038-34.25,0-47.286
	L137.992,108.608z M374.711,392.613c-6.569,6.569-17.258,6.569-23.828,0l-59.655-59.656c-3.476-3.476-4.439-8.811-2.395-13.279
	c3.347-7.321,2.082-15.479-3.225-20.785l-10.058-10.058c-3.466-3.466-8.075-5.375-12.976-5.375c-4.902,0-9.51,1.91-12.976,5.375
	c-2.233,2.233-5.201,3.462-8.358,3.462c-3.157,0-6.126-1.23-8.359-3.462l-62.233-62.233c-48.158-48.158-42.879-83.249-36.647-98.526
	l240.71,240.709C381.281,375.355,381.281,386.044,374.711,392.613z"/>
<path d="M329.283,190.321c1.619,1.619,3.742,2.43,5.864,2.43s4.245-0.809,5.864-2.43l52.931-52.932
	c3.239-3.239,3.239-8.491,0-11.728c-3.239-3.239-8.491-3.239-11.728,0l-52.931,52.931
	C326.043,181.831,326.043,187.082,329.283,190.321z"/>
<path d="M282.792,223.772c2.122,0,4.245-0.809,5.864-2.43l17.383-17.383c1.506-1.506,2.375-3.535,2.427-5.665l0.45-18.753
	c0.138-5.749,3.33-12.292,8.54-17.503l53.954-53.954c3.239-3.239,3.239-8.491,0-11.728c-3.239-3.239-8.491-3.239-11.728,0
	l-53.954,53.954c-8.272,8.271-13.154,18.78-13.394,28.833l-0.37,15.434l-15.036,15.036c-3.239,3.239-3.239,8.491,0,11.728
	C278.547,222.962,280.669,223.772,282.792,223.772z"/>
<path d="M217.899,325.534l-66.353,66.353c-3.183,3.183-7.413,4.935-11.914,4.935c-4.501,0-8.732-1.753-11.914-4.935
	c-3.183-3.183-4.935-7.414-4.935-11.914c0-4.501,1.753-8.732,4.935-11.914l64.05-64.05c3.239-3.239,3.239-8.491,0-11.728
	c-3.239-3.239-8.491-3.239-11.728,0l-64.05,64.05c-6.315,6.315-9.793,14.712-9.793,23.643c0,8.932,3.479,17.328,9.793,23.643
	c6.314,6.315,14.712,9.793,23.643,9.793c8.931,0,17.327-3.479,23.643-9.793l66.353-66.353c3.239-3.239,3.239-8.491,0-11.728
	C226.389,322.295,221.138,322.295,217.899,325.534z"/>
<path d="M424.489,149.438c-3.239-3.239-8.491-3.239-11.728,0l-53.952,53.952c-5.126,5.126-11.695,8.106-17.676,8.042l-19.496-0.296
	c-2.22-0.031-4.405,0.842-5.99,2.428l-17.384,17.384c-3.239,3.239-3.239,8.491,0,11.728c1.619,1.619,3.742,2.43,5.864,2.43
	s4.245-0.809,5.864-2.43l14.902-14.902l15.988,0.242c10.504,0.161,21.301-4.542,29.656-12.898l53.952-53.952
	C427.728,157.927,427.728,152.676,424.489,149.438z"/>
<path d="M437.019,74.981C388.668,26.628,324.38,0,256,0S123.332,26.628,74.981,74.981S0,187.62,0,256s26.628,132.668,74.981,181.019
	S187.62,512,256,512s132.668-26.628,181.019-74.981S512,324.38,512,256S485.372,123.332,437.019,74.981z M425.291,425.291
	c-45.22,45.219-105.341,70.122-169.291,70.122s-124.071-24.903-169.291-70.122C41.491,380.071,16.587,319.949,16.587,256
	S41.491,131.929,86.709,86.709C131.929,41.491,192.051,16.587,256,16.587s124.071,24.903,169.291,70.122
	c45.219,45.22,70.122,105.342,70.122,169.291S470.509,380.071,425.291,425.291z"/>
<g>
</g>
<g>
</g>
<g>
</g>
<g>
</g>
<g>
</g>
<g>
</g>
<g>
</g>
<g>
</g>
<g>
</g>
<g>
</g>
<g>
</g>
<g>
</g>
<g>
</g>
<g>
</g>
<g>
</g>
</svg>
